<?xml version="1.0" encoding="UTF-8"?><svg id="Layer_2" xmlns="http://www.w3.org/2000/svg" viewBox="0 0 174.91 29.03"><defs><style>.cls-1{font-family:Brevia-BoldItalic, Brevia;font-size:35px;}.cls-1,.cls-2{fill:#fff;}.cls-3{letter-spacing:-.04em;}.cls-4{letter-spacing:-.03em;}.cls-5{letter-spacing:-.05em;}.cls-6{letter-spacing:-.09em;}</style></defs><text class="cls-1" transform="translate(68.66 27.81)"><tspan class="cls-5" x="0" y="0">W</tspan><tspan class="cls-3" x="33.04" y="0">e</tspan><tspan class="cls-4" x="51.2" y="0">a</tspan><tspan class="cls-6" x="70.07" y="0">T</tspan><tspan class="cls-4" x="86.66" y="0">o</tspan></text><path class="cls-2" d="M50.43,7.74C48.68,3.24,43.9,0,38.27,0,31.16,0,25.4,5.15,25.4,11.5c0,.13,.02,.25,.02,.38h-.02c-4.99,0-9.04,3.75-9.04,8.38,0,.71,.1,1.39,.28,2.05C9.4,25.22,0,29.03,0,29.03H48.51c6.81-.02,12.32-4.81,12.32-10.72,0-5.34-4.51-9.75-10.4-10.57Zm-11.88,5.05h14.03c.97,0,.97,1.5,0,1.5h-14.03c-.97,0-.97-1.5,0-1.5Zm14.83,12.46h-19.88c-.97,0-.97-1.5,0-1.5h19.88c.97,0,.97,1.5,0,1.5Zm2.19-5.48h-19.45c-.97,0-.97-1.5,0-1.5h19.45c.97,0,.97,1.5,0,1.5Z"/></svg>