<?xml version="1.0" encoding="utf-8"?>
<!-- Generator: Adobe Illustrator 26.3.1, SVG Export Plug-In . SVG Version: 6.00 Build 0)  -->
<svg version="1.1" xmlns="http://www.w3.org/2000/svg" xmlns:xlink="http://www.w3.org/1999/xlink" x="0px" y="0px"
	 viewBox="0 0 286.9 47.6" style="enable-background:new 0 0 286.9 47.6;" xml:space="preserve">
<style type="text/css">
	.st0{display:none;}
	.st1{display:inline;fill:#4A4A4A;}
	.st2{font-family:'Brevia-BoldItalic';}
	.st3{font-size:57.4375px;}
	.st4{letter-spacing:-1;}
	.st5{display:inline;fill:#5BB7DE;}
	.st6{display:inline;}
	.st7{fill:#FFFFFF;}
	.st8{fill:#4A4A4A;}
	.st9{fill:#5BB7DE;}
</style>
<g id="Layer_1" class="st0">
	<text transform="matrix(1 0 0 1 112.6714 45.6378)" class="st1 st2 st3 st4">WeaTo</text>
	<ellipse class="st5" cx="41.7" cy="33.3" rx="14.8" ry="13.8"/>
	<ellipse ="st5" cx="79.5" cy="30" rx="20.3" ry="17.6"/>
	<ellipse class="st5" cx="62.8" cy="18.9" rx="21.1" ry="18.9"/>
	<path class="st5" d="M40.8,31.3C40.8,31.1,0,47.6,0,47.6h79.6l0.7-21.9L40.8,31.3z"/>
	<g class="st6">
		<line class="st7" x1="63.3" y1="22.2" x2="86.3" y2="22.2"/>
		<g>
			<path class="st7" d="M63.3,23c6.7,0,13.4,0,20.2,0c1,0,1.9,0,2.9,0c1,0,1-1.5,0-1.5c-6.7,0-13.4,0-20.2,0c-1,0-1.9,0-2.9,0
				C62.3,21.5,62.3,23,63.3,23L63.3,23z"/>
		</g>
	</g>
	<g class="st6">
		<line class="st7" x1="59.3" y1="31.2" x2="91.2" y2="31.2"/>
		<g>
			<path class="st7" d="M59.3,32c9.3,0,18.7,0,28,0c1.3,0,2.6,0,3.9,0c1,0,1-1.5,0-1.5c-9.3,0-18.7,0-28,0c-1.3,0-2.6,0-3.9,0
				C58.3,30.5,58.3,32,59.3,32L59.3,32z"/>
		</g>
	</g>
	<g class="st6">
		<line class="st7" x1="55" y1="40.2" x2="87.6" y2="40.2"/>
		<g>
			<path class="st7" d="M55,41c9.5,0,19.1,0,28.6,0c1.3,0,2.7,0,4,0c1,0,1-1.5,0-1.5c-9.5,0-19.1,0-28.6,0c-1.3,0-2.7,0-4,0
				C54,39.5,54,41,55,41L55,41z"/>
		</g>
	</g>
</g>
<g id="Layer_2">
	<g>
		<path class="st8" d="M116.3,11.5c-0.1-2.4-0.5-4.9,2.9-4.9h2.9c3.2,0,3.4,2.6,3.4,3.7c0.2,3.9,1.4,22.4,1.8,27.4h0.3
			c2.1-6.2,8-25.3,8.7-27.2c0.6-2.4,1.1-4,4.1-4h5.7c2.9,0,3.1,2.7,3.2,4c0.2,3.8,1.7,22.5,2.2,27.3h0.3c1.7-6,7.6-25.6,8.2-27.4
			c0.7-2.4,1.1-3.8,4-3.8h4.3c2.4,0,2.2,2.5,1.5,4.6c-1.9,5.9-9.6,26.2-10.5,28.8c-0.8,2.4-1.5,5.6-5.3,5.6h-5.7
			c-2.1,0-3.7-0.9-3.7-3.6c-0.1-2.7-1.6-21.5-2.1-26.7h-0.3c-2,6.5-7.6,23.6-8.5,26.8c-0.7,2.8-2.3,3.5-4.4,3.5h-6
			c-3.4,0-3.7-2.9-4-4.9C119,37.9,116.6,15.1,116.3,11.5z"/>
		<path class="st8" d="M185.2,13.5c8.2,0,11.5,4.4,11.3,9.9c-0.2,6.5-6.5,9.9-12.6,9.9c-4.7,0-6.4-2.1-6.4-2.1l-0.2,0.2
			c-0.2,3.6,1.8,7.5,7.6,7.5c4.4,0,8-2.5,8-2.5c1.2,1.2,1.7,2.5,1.6,4c-0.2,3.2-4.4,5.9-11.2,5.9c-10.7,0-14.8-7.4-14.3-15.3
			C169.5,20.7,175.9,13.5,185.2,13.5z M181.8,28.1c3.3,0,6.4-1.3,6.4-4.3c0.1-1.9-1.3-3.2-3.7-3.2c-3.8,0-6,3.1-6.5,5.7
			c-0.1,0.5-0.2,1.1-0.2,1.1C178.1,27.5,179.5,28.1,181.8,28.1z"/>
		<path class="st8" d="M209.7,27c2.2-0.1,4.6,0.3,7,1.1c0,0,0.3-1,0.3-1.8c0.1-2.4-0.5-4.7-5.3-4.7c-4,0-7.4,1-7.9,1.1
			c-0.2-0.5-2.1-4.5,0.3-6.8c1.4-1.4,4.8-2.4,9.5-2.4c9.2,0,13.3,5,12.6,13.2c-0.2,2.8-2,11.9-2,14c0,1.4,0.4,2.4,0.7,3
			c-0.4,0.6-1.9,2.6-5.2,2.6c-2.9,0-4.5-1.7-3.6-6h-0.3c0,0-2.5,6-9.1,6c-5.6,0-9-3.7-8.8-9C198.2,30.8,203.2,27.1,209.7,27z
			 M209.9,39.3c4.2,0,6-3.6,6.2-4.6l0.3-2.6c-0.5-0.1-2-0.6-4-0.6c-3.3,0-6.1,1.4-6.3,4.5C206.1,37.9,207.5,39.3,209.9,39.3z"/>
		<path class="st8" d="M239.9,14.6c-1.7,0-7,0-7.9,0.1c-2.1,0.2-2.5-0.8-2.2-2.8l0.4-3.2c0.2-1.8,0.6-2.2,3-2.2
			c0,0,21.7,0.2,25.6-0.1c2-0.1,2.5,1.1,2.2,3l-0.4,3c-0.2,1.8-0.6,2.2-3,2.2h-8c-1.3,7.9-3.2,24-3.4,25.3c-0.3,2.4,0.6,5.6-3.6,5.6
			h-3.6c-3.2,0-3-2.8-2.6-4.9C236.6,38.6,239.1,21.2,239.9,14.6z"/>
		<path class="st8" d="M273.8,13.5c9.4,0,13.3,7.1,13.2,14.4c-0.4,11.1-6.6,18.4-17,18.4c-9.4,0-13.3-7.2-13-14.7
			C257.3,20.5,263.3,13.5,273.8,13.5z M277.8,28.2c0.1-3.7-1-6.8-4.9-6.8c-5.8,0-6.8,5.1-7,10.1c-0.2,3.7,0.9,6.9,4.9,6.9
			C276.4,38.4,277.6,33.3,277.8,28.2z"/>
	</g>
	<path class="st9" d="M99.8,30c0-8.8-7.4-16-17.1-17.3C79.9,5.3,72.1,0,62.8,0C51.1,0,41.7,8.5,41.7,18.9c0,0.2,0,0.4,0,0.6
		c0,0,0,0,0,0c-8.2,0-14.8,6.2-14.8,13.8c0,1.2,0.2,2.3,0.5,3.4C15.4,41.4,0,47.6,0,47.6h79.6l0,0C90.8,47.6,99.8,39.7,99.8,30z"/>
	<g>
		<line class="st7" x1="63.3" y1="22.2" x2="86.3" y2="22.2"/>
		<g>
			<path class="st7" d="M63.3,23c6.7,0,13.4,0,20.2,0c1,0,1.9,0,2.9,0c1,0,1-1.5,0-1.5c-6.7,0-13.4,0-20.2,0c-1,0-1.9,0-2.9,0
				C62.3,21.5,62.3,23,63.3,23L63.3,23z"/>
		</g>
	</g>
	<g>
		<line class="st7" x1="59.3" y1="31.2" x2="91.2" y2="31.2"/>
		<g>
			<path class="st7" d="M59.3,32c9.3,0,18.7,0,28,0c1.3,0,2.6,0,3.9,0c1,0,1-1.5,0-1.5c-9.3,0-18.7,0-28,0c-1.3,0-2.6,0-3.9,0
				C58.3,30.5,58.3,32,59.3,32L59.3,32z"/>
		</g>
	</g>
	<g>
		<line class="st7" x1="55" y1="40.2" x2="87.6" y2="40.2"/>
		<g>
			<path class="st7" d="M55,41c9.5,0,19.1,0,28.6,0c1.3,0,2.7,0,4,0c1,0,1-1.5,0-1.5c-9.5,0-19.1,0-28.6,0c-1.3,0-2.7,0-4,0
				C54,39.5,54,41,55,41L55,41z"/>
		</g>
	</g>
</g>
</svg>
